<?xml version="1.0" encoding="UTF-8" standalone="no"?><!DOCTYPE svg PUBLIC "-//W3C//DTD SVG 1.1//EN" "http://www.w3.org/Graphics/SVG/1.1/DTD/svg11.dtd"><svg width="100%" height="100%" viewBox="0 0 553 226" version="1.1" xmlns="http://www.w3.org/2000/svg" xmlns:xlink="http://www.w3.org/1999/xlink" xml:space="preserve" xmlns:serif="http://www.serif.com/" style="fill-rule:evenodd;clip-rule:evenodd;stroke-linecap:square;stroke-miterlimit:1.5;"><rect id="Artboard1" x="0" y="0" width="552.884" height="225.608" style="fill:none;"/><circle cx="36.373" cy="81.143" r="15.619"/><circle cx="36.373" cy="143.711" r="15.619"/><path d="M169.127,129.664l15.269,3.857c-3.201,12.54 -8.96,22.103 -17.276,28.688c-8.317,6.586 -18.483,9.878 -30.499,9.878c-12.436,0 -22.55,-2.532 -30.342,-7.595c-7.792,-5.064 -13.721,-12.397 -17.788,-21.999c-4.066,-9.602 -6.1,-19.913 -6.1,-30.932c0,-12.016 2.296,-22.497 6.887,-31.443c4.591,-8.947 11.124,-15.742 19.598,-20.385c8.474,-4.644 17.801,-6.966 27.981,-6.966c11.543,0 21.251,2.938 29.121,8.815c7.871,5.877 13.354,14.141 16.45,24.793l-15.033,3.542c-2.676,-8.396 -6.559,-14.509 -11.649,-18.339c-5.089,-3.83 -11.491,-5.746 -19.204,-5.746c-8.868,0 -16.279,2.125 -22.235,6.376c-5.955,4.25 -10.14,9.956 -12.554,17.118c-2.413,7.163 -3.62,14.548 -3.62,22.157c0,9.812 1.43,18.378 4.289,25.697c2.86,7.32 7.307,12.79 13.341,16.411c6.034,3.62 12.567,5.431 19.598,5.431c8.553,0 15.794,-2.466 21.723,-7.399c5.93,-4.932 9.944,-12.252 12.043,-21.959Z" style="fill-rule:nonzero;"/><path d="M196.123,128.326c0,-15.479 4.303,-26.944 12.908,-34.395c7.189,-6.192 15.952,-9.288 26.288,-9.288c11.492,0 20.884,3.765 28.178,11.295c7.293,7.53 10.94,17.932 10.94,31.207c0,10.757 -1.614,19.218 -4.841,25.383c-3.227,6.166 -7.923,10.954 -14.088,14.364c-6.166,3.411 -12.895,5.116 -20.189,5.116c-11.701,0 -21.159,-3.751 -28.374,-11.255c-7.214,-7.503 -10.822,-18.312 -10.822,-32.427Zm14.561,0c0,10.704 2.335,18.719 7.005,24.045c4.67,5.326 10.547,7.989 17.63,7.989c7.032,0 12.882,-2.676 17.552,-8.028c4.67,-5.353 7.005,-13.512 7.005,-24.478c0,-10.337 -2.348,-18.169 -7.044,-23.494c-4.696,-5.326 -10.534,-7.989 -17.513,-7.989c-7.083,0 -12.96,2.65 -17.63,7.949c-4.67,5.3 -7.005,13.302 -7.005,24.006Z" style="fill-rule:nonzero;"/><rect x="290.729" y="54.735" width="14.167" height="115.385" style="fill-rule:nonzero;"/><path d="M321.583,128.326c0,-15.479 4.302,-26.944 12.907,-34.395c7.189,-6.192 15.952,-9.288 26.289,-9.288c11.491,0 20.883,3.765 28.177,11.295c7.293,7.53 10.94,17.932 10.94,31.207c0,10.757 -1.613,19.218 -4.84,25.383c-3.227,6.166 -7.924,10.954 -14.089,14.364c-6.165,3.411 -12.895,5.116 -20.188,5.116c-11.701,0 -21.159,-3.751 -28.374,-11.255c-7.215,-7.503 -10.822,-18.312 -10.822,-32.427Zm14.56,0c0,10.704 2.335,18.719 7.005,24.045c4.67,5.326 10.547,7.989 17.631,7.989c7.031,0 12.881,-2.676 17.551,-8.028c4.67,-5.353 7.005,-13.512 7.005,-24.478c0,-10.337 -2.348,-18.169 -7.044,-23.494c-4.696,-5.326 -10.534,-7.989 -17.512,-7.989c-7.084,0 -12.961,2.65 -17.631,7.949c-4.67,5.3 -7.005,13.302 -7.005,24.006Z" style="fill-rule:nonzero;"/><path d="M416.503,170.119l0,-83.587l12.751,0l0,11.885c6.139,-9.182 15.007,-13.774 26.603,-13.774c5.037,0 9.668,0.906 13.892,2.716c4.224,1.81 7.385,4.184 9.484,7.123c2.099,2.938 3.568,6.428 4.408,10.468c0.524,2.623 0.787,7.215 0.787,13.774l0,51.395l-14.168,0l0,-50.844c0,-5.772 -0.551,-10.088 -1.652,-12.948c-1.102,-2.859 -3.057,-5.142 -5.864,-6.847c-2.807,-1.706 -6.1,-2.558 -9.878,-2.558c-6.034,0 -11.242,1.915 -15.623,5.745c-4.382,3.831 -6.572,11.098 -6.572,21.802l0,45.65l-14.168,0Z" style="fill-rule:nonzero;"/><path d="M36.373,52.767l0,-22.874l481.949,0" style="fill:none;stroke:#000;stroke-width:3.99px;"/><path d="M36.373,172.087l0,22.874l481.949,0" style="fill:none;stroke:#000;stroke-width:3.99px;"/><path d="M518.322,29.893l0,165.068" style="fill:none;stroke:#000;stroke-width:3.99px;"/></svg>